<?xml version="1.0" standalone="no"?>
<!DOCTYPE svg PUBLIC "-//W3C//DTD SVG 20010904//EN"
 "http://www.w3.org/TR/2001/REC-SVG-20010904/DTD/svg10.dtd">
<svg version="1.0" xmlns="http://www.w3.org/2000/svg"
 width="1024.000000pt" height="1024.000000pt" viewBox="0 0 1024.000000 1024.000000"
 preserveAspectRatio="xMidYMid meet">

<g transform="translate(0.000000,1024.000000) scale(0.100000,-0.100000)"
fill="#000000" stroke="none">
<path d="M4272 6995 c-66 -19 -84 -28 -149 -77 -106 -80 -162 -207 -149 -339
l6 -66 -60 -57 c-165 -157 -424 -180 -755 -65 -187 64 -300 56 -379 -27 -54
-57 -67 -94 -127 -374 -88 -415 -81 -346 -88 -855 -3 -253 -2 -485 2 -515 4
-30 21 -78 36 -106 l28 -52 -29 -6 c-50 -10 -175 -66 -238 -107 -155 -100
-307 -311 -355 -494 -24 -91 -30 -275 -12 -362 35 -163 96 -270 232 -409 85
-86 113 -108 185 -143 97 -47 176 -69 273 -78 l67 -6 48 -71 c51 -75 129 -145
210 -189 103 -56 116 -57 747 -57 l580 0 28 -50 c63 -113 188 -216 317 -262
l65 -23 715 0 715 0 68 27 c37 15 87 41 111 57 70 48 157 152 192 229 1 2 53
7 116 12 69 5 137 17 173 29 121 43 235 143 294 259 l21 42 193 0 c220 0 287
11 400 63 178 82 299 200 386 374 62 124 75 186 76 353 0 125 -3 156 -23 220
-50 158 -154 318 -274 418 -62 51 -200 123 -281 147 -31 9 -57 19 -57 22 0 3
11 18 24 34 14 16 35 55 48 86 22 56 23 66 23 373 0 279 -2 322 -19 375 -32
104 -76 175 -161 260 -89 90 -172 139 -295 176 -73 22 -89 23 -593 27 -466 3
-521 5 -546 20 -29 18 -205 144 -409 292 -64 47 -245 177 -402 289 -351 251
-345 246 -455 329 -86 65 -291 213 -358 259 -43 30 -101 36 -165 18z m40 -190
c-29 -13 -77 -48 -107 -76 -66 -62 -73 -51 -10 19 49 55 95 81 140 82 27 0 25
-3 -23 -25z m252 -131 l58 -37 -68 -32 c-104 -48 -136 -94 -114 -160 14 -41
59 -70 97 -60 13 3 74 33 135 65 l111 60 59 -37 c32 -21 57 -42 55 -46 -1 -4
-43 -29 -92 -56 -81 -43 -91 -52 -104 -88 -19 -52 -2 -99 42 -118 36 -15 67
-8 123 28 22 14 77 43 122 66 l82 41 60 -40 c32 -22 61 -44 64 -48 3 -5 -27
-24 -67 -41 -108 -48 -137 -78 -137 -141 0 -38 47 -90 82 -90 13 0 48 14 78
30 85 47 201 101 220 103 16 1 140 -73 140 -83 -1 -3 -35 -21 -77 -40 -101
-46 -133 -76 -133 -128 0 -48 29 -88 70 -97 23 -5 43 0 78 19 26 14 88 47 139
73 l92 47 65 -44 c37 -25 66 -47 66 -50 0 -4 -32 -22 -71 -41 -39 -19 -82 -47
-95 -62 -34 -41 -32 -90 5 -128 36 -36 63 -36 121 -4 145 82 204 106 245 100
22 -3 110 -9 196 -13 166 -7 185 -13 237 -71 89 -100 142 -232 142 -356 l0
-44 -1921 0 -1921 -1 5 212 c5 226 14 291 82 615 48 229 55 252 79 268 32 23
74 18 194 -25 314 -112 591 -106 802 17 61 36 154 122 330 307 82 85 140 130
198 151 54 20 62 19 126 -21z m2556 -1075 c142 -29 274 -128 336 -253 31 -65
59 -178 46 -191 -3 -3 -168 -5 -367 -5 l-362 0 -6 83 c-10 126 -48 234 -121
340 -14 21 -26 39 -26 40 0 8 456 -5 500 -14z m390 -686 l0 -73 -2379 0 -2378
0 -7 53 c-3 28 -6 62 -6 74 l0 22 2385 -2 2385 -1 0 -73z m-1315 -230 c88 -6
95 -8 60 -15 -56 -12 -210 -89 -274 -137 l-53 -41 -207 -2 c-113 -1 -492 -2
-841 -3 l-635 -1 -79 39 c-95 46 -194 73 -320 86 -156 16 -300 -10 -462 -84
l-76 -35 -207 0 c-148 0 -210 3 -219 12 -7 7 -12 9 -12 4 0 -11 -61 33 -88 64
-20 23 -42 77 -42 108 0 9 342 12 1678 12 922 0 1722 -3 1777 -7z m1305 -7 c0
-28 -30 -90 -58 -119 -53 -57 -89 -67 -226 -67 l-125 0 -63 44 c-78 54 -243
136 -275 136 -13 0 -23 3 -23 8 0 4 173 9 385 11 350 3 385 1 385 -13z m-846
-161 c149 -32 326 -147 412 -269 44 -64 78 -88 109 -79 11 3 45 21 76 40 271
165 652 -12 768 -358 31 -91 38 -151 28 -254 -24 -252 -207 -481 -432 -540
-43 -11 -110 -15 -241 -15 l-182 0 -12 71 c-26 151 -149 318 -283 382 -117 56
-253 68 -361 31 -40 -13 -56 -11 -56 7 0 15 -68 118 -113 172 -56 66 -167 149
-257 191 -81 39 -213 76 -267 76 -40 0 -42 15 -14 91 51 133 181 291 301 364
63 38 172 82 235 95 66 13 216 11 289 -5z m-2733 -89 c195 -42 386 -173 491
-337 65 -101 85 -108 184 -62 49 23 77 28 161 31 120 5 195 -15 290 -77 58
-38 173 -151 173 -169 0 -6 -16 -20 -36 -33 -43 -26 -146 -146 -193 -223 -43
-72 -79 -161 -99 -248 l-16 -68 -61 0 c-78 0 -176 -24 -239 -58 -139 -74 -266
-274 -266 -419 l0 -42 -277 -3 c-153 -2 -415 -1 -583 2 -299 5 -306 5 -353 29
-64 33 -127 97 -173 176 -47 80 -87 102 -206 115 -167 18 -288 77 -392 191
-138 153 -197 377 -150 568 24 98 87 211 161 291 97 104 204 171 323 201 59
15 321 16 372 2 l27 -8 -55 -70 c-63 -81 -134 -222 -159 -315 -20 -74 -33
-243 -23 -291 13 -68 91 -91 145 -45 27 24 28 26 29 138 1 156 32 253 124 388
46 68 149 169 221 217 81 55 224 112 319 126 60 10 200 6 261 -7z m1791 -148
l26 -17 -36 -68 c-20 -37 -46 -102 -58 -143 l-22 -75 -67 -17 c-38 -9 -95 -26
-127 -38 -33 -12 -61 -20 -62 -18 -59 96 -173 199 -283 256 -40 20 -73 41 -73
45 0 15 62 62 110 82 44 19 64 20 307 15 222 -4 263 -7 285 -22z m-882 -8
c-19 -27 -26 -30 -78 -28 -59 1 -127 -14 -173 -38 -26 -13 -28 -12 -68 41
l-42 55 191 0 191 0 -21 -30z m1019 -471 c145 -23 257 -83 371 -198 56 -57 85
-96 113 -156 65 -135 92 -151 184 -109 76 34 191 44 258 20 26 -8 69 -32 96
-52 173 -133 190 -369 36 -511 -78 -72 -122 -86 -281 -90 -167 -4 -177 -9
-230 -117 -41 -84 -96 -140 -178 -183 l-53 -28 -690 0 -690 0 -75 37 c-82 39
-122 74 -171 144 -62 90 -72 169 -38 280 18 59 30 77 83 129 96 94 204 119
329 76 101 -35 151 5 140 111 -7 69 17 182 56 263 87 185 293 345 493 384 62
12 173 12 247 0z"/>
<path d="M6043 5540 c-56 -34 -57 -121 -1 -163 35 -26 90 -16 131 24 26 26 29
35 24 72 -11 78 -84 110 -154 67z"/>
</g>
</svg>
